<svg xmlns="http://www.w3.org/2000/svg" xmlns:xlink="http://www.w3.org/1999/xlink" width="74" height="56" version="1.1" viewBox="0 0 74 56"><title>camera-icon</title><desc>Created with Sketch.</desc><defs><rect id="path-1" width="74" height="56" x="0" y="0"/><linearGradient id="linearGradient-3" x1="0%" x2="50%" y1="42.509%" y2="100%"><stop offset="0%" stop-color="#000" stop-opacity=".1"/><stop offset="100%" stop-color="#000" stop-opacity="0"/></linearGradient></defs><g id="Page-1" fill="none" fill-rule="evenodd" stroke="none" stroke-width="1"><g id="mobile-v2" transform="translate(-17.000000, -335.000000)"><g id="Livestream-2" transform="translate(0.000000, 315.000000)"><g id="camera-icon" transform="translate(17.000000, 20.000000)"><g id="Path-3-+-Rectangle-57"><mask id="mask-2" fill="#fff"><use xlink:href="#path-1"/></mask><use id="Rectangle-59" fill="#55DDCA" xlink:href="#path-1"/><path id="Path-3" fill="url(#linearGradient-3)" d="M4.18867925,28.1763697 L38.7164295,61.6 L67.303149,61.6 L67.0188679,33.6502117 L40.1659483,7.65598808 L36.8706321,13.0848141 L31.48349,7 L4.18867925,28.1763697 Z" mask="url(#mask-2)"/></g><g id="Rectangle-59-+-Rectangle-60" fill="#FFF" transform="translate(2.000000, 5.000000)"><rect id="Rectangle-59" width="29" height="23" x="0" y="0" rx="2"/><path id="Rectangle-60" d="M36.4647143,21.966854 C37.316148,22.6693143 38.0063714,22.3474396 38.0063714,21.2439067 L38.0063714,3.19265186 C38.0063714,2.09091874 37.3208937,1.76912918 36.4647143,2.48274953 L24.0601756,12.821858 C23.2087419,13.5315229 22.5185185,13.2055543 22.5185185,12.1131207 L22.5185185,12.4544908 C22.5185185,11.3534011 23.2039963,11.0263329 24.0601756,11.7327085 L36.4647143,21.966854 Z"/></g></g></g></g></g></svg>