<svg xmlns="http://www.w3.org/2000/svg" xmlns:xlink="http://www.w3.org/1999/xlink" width="88" height="112" version="1.1" viewBox="0 0 88 112"><title>Group</title><desc>Created with Sketch.</desc><defs><rect id="path-1" width="96" height="117" x="0" y="0"/><linearGradient id="linearGradient-3" x1="0%" x2="52.418%" y1="42.509%" y2="79.948%"><stop offset="0%" stop-color="#000" stop-opacity=".1"/><stop offset="100%" stop-color="#000" stop-opacity="0"/></linearGradient></defs><g id="Page-1" fill="none" fill-rule="evenodd" stroke="none" stroke-width="1"><g id="mobile-v2" transform="translate(-224.000000, -451.000000)"><g id="Path-54-+-Rectangle-81-+-Oval-19" transform="translate(178.000000, 420.000000)"><g id="Group" transform="translate(46.000000, 31.000000)"><mask id="mask-2" fill="#fff"><use xlink:href="#path-1"/></mask><use id="Rectangle-105" xlink:href="#path-1"/><path id="Path-55" fill="url(#linearGradient-3)" d="M5.92665615,73.3327973 L51.0632972,117.979495 L99.3020568,131 L99.6074219,78.2228452 L22.1627397,1.20820189 L8.22166578,37.7905419 L2.87929905,32.5061648 L0.784951873,39.722603 L1.99269473,53.4074952 L7.63270476,61.3085949 L14.8210113,68.4026493 L14.7810514,70.9883665 L8.00158819,72.0384638 L5.92665615,73.3327973 Z" mask="url(#mask-2)"/><path id="Rectangle-189" fill="#FFF" d="M25.8884457,47 L26,47 L26,9 L25.9877486,9 L25.9877486,9 C25.7414267,3.98571764 21.8116727,0 17,0 C12.1883273,0 8.25857333,3.98571764 8.01225142,9 L8,9 L8,47 L8.11155427,47 C8.79287669,51.5339785 12.5129755,55 17,55 C21.4870245,55 25.2071233,51.5339785 25.8884457,47 Z" mask="url(#mask-2)"/><path id="Oval-19" fill="#FFF" d="M19,70 L19,63.8362919 C26.7533969,62.9101409 32.9119278,56.6660801 33.8702422,48.7789108 L33.8702422,48.7789108 C33.966123,48.5456117 34.0189856,48.2901303 34.0189856,48.0222607 L34.0189856,34.0124393 C34.0189856,32.9105819 33.1312559,32.01735 32.0189856,32.01735 C30.9144161,32.01735 30.0189856,32.9099728 30.0189856,34.0124393 L30.0189856,48.0222607 C30.0189856,48.1054529 30.0240461,48.1874559 30.0338817,48.2679749 C29.3691117,54.4732218 23.7736141,59.3177945 16.9693025,59.3177945 C10.2600232,59.3177945 4.72602785,54.6076 3.93545211,48.5271652 C3.97757754,48.3659221 4,48.1967187 4,48.0222607 L4,34.0124393 C4,32.9105819 3.11227036,32.01735 2,32.01735 C0.8954305,32.01735 0,32.9099728 0,34.0124393 L0,48.0222607 C0,48.2645328 0.0429177293,48.4967188 0.121703477,48.7115413 L0.121703477,48.7115413 C1.05303645,56.6305016 7.22454052,62.9075055 15,63.8362919 L15,63.8362919 L15,70 L7.991155,70 C6.89147046,70 6,70.8877296 6,72 C6,73.1045695 6.88967395,74 7.991155,74 L26.008845,74 C27.1085295,74 28,73.1122704 28,72 C28,70.8954305 27.1103261,70 26.008845,70 L19,70 Z" mask="url(#mask-2)"/></g></g></g></g></svg>