<svg xmlns="http://www.w3.org/2000/svg" xmlns:xlink="http://www.w3.org/1999/xlink" width="304" height="304" version="1.1" viewBox="0 0 304 304"><title>Rectangle 55 + Oval 10 + Path 4</title><desc>Created with Sketch.</desc><defs><rect id="path-1" width="304" height="304" x="0" y="0"/><linearGradient id="linearGradient-3" x1="0%" x2="50%" y1="42.509%" y2="100%"><stop offset="0%" stop-color="#000" stop-opacity=".1"/><stop offset="100%" stop-color="#000" stop-opacity="0"/></linearGradient></defs><g id="Page-1" fill="none" fill-rule="evenodd" stroke="none" stroke-width="1"><g id="Desktop-Superwide" transform="translate(-1164.000000, -2024.000000)"><g id="Rectangle-55-+-Oval-10-+-Path-4" transform="translate(1164.000000, 2024.000000)"><mask id="mask-2" fill="#fff"><use xlink:href="#path-1"/></mask><use id="Rectangle-55" fill="#4990E2" xlink:href="#path-1"/><path id="Path-4" fill="url(#linearGradient-3)" d="M82.5,171.287109 L216.706645,305.493754 L303.701625,305.493754 L303.701625,199.395817 L220.103641,115.797834 L82.5,171.287109 Z" mask="url(#mask-2)"/><path id="Oval-10" fill="#FFF" d="M139.737912,213.448424 C142.43851,208.681155 144,203.042468 144,197 C144,196.903473 143.999602,196.807049 143.998806,196.71073 C103.536073,193.941014 72,171.622347 72,144.5 C72,115.505051 108.041078,92 152.5,92 C196.958922,92 233,115.505051 233,144.5 C233,170.095057 204.915592,191.412203 167.747745,196.0595 L167.747745,196.0595 C163.523306,207.340411 153.777908,215.568455 142.132069,216.831134 L142.132069,216.831134 C142.100267,216.791143 142.068373,216.751052 142.036391,216.710867 C141.734145,216.894351 141.37941,217 141,217 C139.895431,217 139,216.104569 139,215 C139,214.373987 139.287615,213.815151 139.737912,213.448424 Z" mask="url(#mask-2)"/></g></g></g></svg>